<?xml version="1.0" standalone="no"?>
<!DOCTYPE svg PUBLIC "-//W3C//DTD SVG 20010904//EN"
 "http://www.w3.org/TR/2001/REC-SVG-20010904/DTD/svg10.dtd">
<svg version="1.0" xmlns="http://www.w3.org/2000/svg"
 width="70.000000pt" height="70.000000pt" viewBox="0 0 70.000000 70.000000"
 preserveAspectRatio="xMidYMid meet">
<metadata>
Created by potrace 1.14, written by Peter Selinger 2001-2017
</metadata>
<g transform="translate(0.000000,70.000000) scale(0.100000,-0.100000)"
fill="#000000" stroke="none">
<path d="M11 671 c-18 -33 -14 -116 7 -134 24 -22 134 -24 151 -3 7 9 11 41 9
83 l-3 68 -77 3 c-68 2 -78 1 -87 -17z"/>
<path d="M260 671 c-14 -27 -13 -124 2 -139 7 -7 40 -12 78 -12 38 0 71 5 78
12 7 7 12 39 12 73 0 34 -5 66 -12 73 -7 7 -40 12 -80 12 -56 0 -69 -3 -78
-19z"/>
<path d="M517 672 c-21 -22 -23 -110 -4 -136 10 -14 25 -16 87 -14 l75 3 3 68
c2 42 -2 74 -9 83 -18 22 -131 19 -152 -4z"/>
<path d="M10 421 c-16 -31 -12 -117 6 -135 19 -19 134 -22 152 -4 16 16 16
130 0 146 -7 7 -40 12 -80 12 -56 0 -69 -3 -78 -19z"/>
<path d="M276 424 c-19 -19 -22 -124 -4 -142 16 -16 140 -16 156 0 16 16 16
130 0 146 -18 18 -133 15 -152 -4z"/>
<path d="M510 411 c-17 -33 -12 -116 8 -134 22 -20 131 -24 150 -5 12 12 17
114 6 142 -5 13 -22 16 -80 16 -62 0 -75 -3 -84 -19z"/>
<path d="M17 172 c-22 -25 -23 -115 -1 -136 11 -12 35 -16 89 -16 86 0 95 8
95 85 0 77 -9 85 -94 85 -58 0 -76 -4 -89 -18z"/>
<path d="M266 175 c-11 -29 -6 -131 6 -143 14 -14 126 -16 146 -3 9 5 12 29
10 82 l-3 74 -76 3 c-63 2 -78 0 -83 -13z"/>
<path d="M522 178 c-7 -7 -12 -39 -12 -73 0 -34 5 -66 12 -73 7 -7 40 -12 80
-12 78 0 88 9 88 85 0 76 -10 85 -88 85 -40 0 -73 -5 -80 -12z"/>
</g>
</svg>
